<mxfile host="65bd71144e">
    <diagram id="mJJqruCiDOJrMhsEZ2IP" name="Page-1">
        <mxGraphModel dx="1623" dy="1912" grid="1" gridSize="10" guides="1" tooltips="1" connect="1" arrows="1" fold="1" page="1" pageScale="1" pageWidth="850" pageHeight="1100" math="0" shadow="0">
            <root>
                <mxCell id="0"/>
                <mxCell id="1" parent="0"/>
                <mxCell id="64" value="Proceso de comisión disciplinaria" style="swimlane;childLayout=stackLayout;resizeParent=1;resizeParentMax=0;horizontal=0;startSize=20;horizontalStack=0;whiteSpace=wrap;labelBorderColor=none;labelBackgroundColor=none;" parent="1" vertex="1">
                    <mxGeometry x="200" y="-160" width="980" height="520" as="geometry"/>
                </mxCell>
                <mxCell id="69" value="Usuario" style="swimlane;startSize=20;horizontal=0;whiteSpace=wrap;labelBorderColor=none;labelBackgroundColor=none;" parent="64" vertex="1">
                    <mxGeometry x="20" width="960" height="90" as="geometry"/>
                </mxCell>
                <mxCell id="109" value="" style="edgeStyle=none;sketch=0;exitX=1;exitY=0.5;exitDx=0;exitDy=0;entryX=0;entryY=0.5;entryDx=0;entryDy=0;shadow=0;fontFamily=Helvetica;fontSize=12;fontColor=default;labelBorderColor=none;labelBackgroundColor=none;" parent="69" source="71" target="12" edge="1">
                    <mxGeometry relative="1" as="geometry"/>
                </mxCell>
                <mxCell id="71" value="" style="ellipse;whiteSpace=wrap;labelBorderColor=none;labelBackgroundColor=none;fillColor=#1A1A1A;" parent="69" vertex="1">
                    <mxGeometry x="33" y="27" width="40" height="40" as="geometry"/>
                </mxCell>
                <mxCell id="12" value="Emite una denuncia" style="rounded=0;whiteSpace=wrap;labelBorderColor=none;labelBackgroundColor=none;fillColor=#FFFF99;" parent="69" vertex="1">
                    <mxGeometry x="109" y="27" width="161" height="40.5" as="geometry"/>
                </mxCell>
                <mxCell id="14" value="" style="edgeStyle=none;exitX=0.5;exitY=1;exitDx=0;exitDy=0;entryX=0.5;entryY=0;entryDx=0;entryDy=0;labelBorderColor=none;labelBackgroundColor=none;" parent="64" source="12" target="17" edge="1">
                    <mxGeometry relative="1" as="geometry">
                        <mxPoint x="-682.5" y="137.5" as="targetPoint"/>
                    </mxGeometry>
                </mxCell>
                <mxCell id="32" value="" style="edgeStyle=none;sketch=0;fontFamily=Helvetica;fontSize=12;fontColor=default;exitX=0.5;exitY=1;exitDx=0;exitDy=0;labelBorderColor=none;labelBackgroundColor=none;entryX=0.5;entryY=0;entryDx=0;entryDy=0;" parent="64" source="26" target="112" edge="1">
                    <mxGeometry relative="1" as="geometry">
                        <mxPoint x="-492.5" y="240" as="sourcePoint"/>
                    </mxGeometry>
                </mxCell>
                <mxCell id="104" value="" style="edgeStyle=none;sketch=0;shadow=0;fontFamily=Helvetica;fontSize=12;fontColor=default;labelBorderColor=none;labelBackgroundColor=none;exitX=0.5;exitY=0;exitDx=0;exitDy=0;entryX=0.5;entryY=1;entryDx=0;entryDy=0;" parent="64" source="35" target="38" edge="1">
                    <mxGeometry relative="1" as="geometry">
                        <mxPoint x="708" y="320" as="targetPoint"/>
                        <mxPoint x="936.5" y="387.02999999999975" as="sourcePoint"/>
                    </mxGeometry>
                </mxCell>
                <mxCell id="76" value="Decano" style="swimlane;startSize=20;horizontal=0;whiteSpace=wrap;labelBorderColor=none;labelBackgroundColor=none;" parent="64" vertex="1">
                    <mxGeometry x="20" y="90" width="960" height="310" as="geometry"/>
                </mxCell>
                <mxCell id="117" value="" style="edgeStyle=none;html=1;" parent="76" source="20" target="22" edge="1">
                    <mxGeometry relative="1" as="geometry"/>
                </mxCell>
                <mxCell id="20" value="No" style="ellipse;whiteSpace=wrap;labelBorderColor=none;labelBackgroundColor=none;" parent="76" vertex="1">
                    <mxGeometry x="80" y="33.25" width="30" height="30" as="geometry"/>
                </mxCell>
                <mxCell id="22" value="Sobreseimiento del expediente.&#10;(Se archiva la denuncia)" style="whiteSpace=wrap;labelBorderColor=none;labelBackgroundColor=none;fillColor=#FFFF99;" parent="76" vertex="1">
                    <mxGeometry x="39" y="80" width="110" height="70" as="geometry"/>
                </mxCell>
                <mxCell id="23" value="" style="edgeStyle=none;labelBorderColor=none;labelBackgroundColor=none;" parent="76" source="20" target="22" edge="1">
                    <mxGeometry relative="1" as="geometry"/>
                </mxCell>
                <mxCell id="17" value="¿Procede?" style="rhombus;whiteSpace=wrap;labelBorderColor=none;labelBackgroundColor=none;" parent="76" vertex="1">
                    <mxGeometry x="130" y="21" width="120" height="55" as="geometry"/>
                </mxCell>
                <mxCell id="26" value="Designa una&#10;comisión para atender el caso" style="whiteSpace=wrap;labelBorderColor=none;labelBackgroundColor=none;fillColor=#FFFF99;" parent="76" vertex="1">
                    <mxGeometry x="241" y="80" width="115" height="70" as="geometry"/>
                </mxCell>
                <mxCell id="21" value="" style="edgeStyle=none;labelBorderColor=none;labelBackgroundColor=none;" parent="76" source="17" target="20" edge="1">
                    <mxGeometry relative="1" as="geometry"/>
                </mxCell>
                <mxCell id="27" value="" style="edgeStyle=none;sketch=0;labelBorderColor=none;labelBackgroundColor=none;" parent="76" source="24" target="26" edge="1">
                    <mxGeometry relative="1" as="geometry"/>
                </mxCell>
                <mxCell id="129" value="" style="edgeStyle=none;html=1;fontSize=11;" parent="76" source="24" target="26" edge="1">
                    <mxGeometry relative="1" as="geometry"/>
                </mxCell>
                <mxCell id="24" value="Sí" style="ellipse;shadow=0;sketch=0;whiteSpace=wrap;labelBorderColor=none;labelBackgroundColor=none;" parent="76" vertex="1">
                    <mxGeometry x="280.75" y="30" width="36.5" height="36.5" as="geometry"/>
                </mxCell>
                <mxCell id="25" value="" style="edgeStyle=none;labelBorderColor=none;labelBackgroundColor=none;" parent="76" source="17" target="24" edge="1">
                    <mxGeometry relative="1" as="geometry"/>
                </mxCell>
                <mxCell id="125" value="" style="edgeStyle=none;html=1;exitX=0.5;exitY=0;exitDx=0;exitDy=0;" parent="76" source="38" target="42" edge="1">
                    <mxGeometry relative="1" as="geometry"/>
                </mxCell>
                <mxCell id="38" value="¿Se aceptan las&#10;conclusiones?" style="rhombus;whiteSpace=wrap;labelBorderColor=none;labelBackgroundColor=none;" parent="76" vertex="1">
                    <mxGeometry x="611.5" y="115.5" width="157" height="80" as="geometry"/>
                </mxCell>
                <mxCell id="42" value="Sí" style="ellipse;shadow=0;sketch=0;whiteSpace=wrap;labelBorderColor=none;labelBackgroundColor=none;" parent="76" vertex="1">
                    <mxGeometry x="675" y="64.25" width="30" height="30" as="geometry"/>
                </mxCell>
                <mxCell id="107" value="" style="edgeStyle=none;sketch=0;shadow=0;fontFamily=Helvetica;fontSize=12;fontColor=default;labelBorderColor=none;labelBackgroundColor=none;" parent="76" source="50" target="75" edge="1">
                    <mxGeometry relative="1" as="geometry"/>
                </mxCell>
                <mxCell id="50" value="Notifica al infractor" style="shadow=0;sketch=0;whiteSpace=wrap;labelBorderColor=none;labelBackgroundColor=none;fillColor=#FFFF99;" parent="76" vertex="1">
                    <mxGeometry x="815" y="116.75" width="128" height="40" as="geometry"/>
                </mxCell>
                <mxCell id="44" value="Emite resolución&#10;del caso" style="shadow=0;sketch=0;whiteSpace=wrap;labelBorderColor=none;labelBackgroundColor=none;fillColor=#FFFF99;" parent="76" vertex="1">
                    <mxGeometry x="815" y="40" width="130" height="50" as="geometry"/>
                </mxCell>
                <mxCell id="45" value="" style="edgeStyle=none;sketch=0;shadow=0;fontFamily=Helvetica;fontSize=12;fontColor=default;labelBorderColor=none;labelBackgroundColor=none;entryX=0;entryY=0.75;entryDx=0;entryDy=0;" parent="76" source="42" target="44" edge="1">
                    <mxGeometry relative="1" as="geometry">
                        <mxPoint x="815" y="85" as="targetPoint"/>
                    </mxGeometry>
                </mxCell>
                <mxCell id="54" value="" style="edgeStyle=none;sketch=0;shadow=0;fontFamily=Helvetica;fontSize=12;fontColor=default;labelBorderColor=none;labelBackgroundColor=none;" parent="76" source="44" target="50" edge="1">
                    <mxGeometry relative="1" as="geometry"/>
                </mxCell>
                <mxCell id="75" value="" style="ellipse;whiteSpace=wrap;labelBorderColor=none;labelBackgroundColor=none;" parent="76" vertex="1">
                    <mxGeometry x="859" y="178.25" width="40" height="39" as="geometry"/>
                </mxCell>
                <mxCell id="138" value="" style="edgeStyle=none;html=1;entryX=0.5;entryY=1;entryDx=0;entryDy=0;" parent="76" target="139" edge="1">
                    <mxGeometry relative="1" as="geometry">
                        <mxPoint x="565" y="150" as="sourcePoint"/>
                        <mxPoint x="565" y="100.25" as="targetPoint"/>
                    </mxGeometry>
                </mxCell>
                <mxCell id="55" value="No" style="ellipse;shadow=0;sketch=0;whiteSpace=wrap;labelBorderColor=none;labelBackgroundColor=none;" parent="76" vertex="1">
                    <mxGeometry x="550" y="140.5" width="30" height="30" as="geometry"/>
                </mxCell>
                <mxCell id="57" value="" style="edgeStyle=none;sketch=0;shadow=0;fontFamily=Helvetica;fontSize=12;fontColor=default;labelBorderColor=none;labelBackgroundColor=none;exitX=0;exitY=0.5;exitDx=0;exitDy=0;" parent="76" source="38" target="55" edge="1">
                    <mxGeometry relative="1" as="geometry">
                        <mxPoint x="570" y="61" as="sourcePoint"/>
                    </mxGeometry>
                </mxCell>
                <mxCell id="132" value="" style="edgeStyle=none;html=1;exitX=0.5;exitY=0;exitDx=0;exitDy=0;entryX=0;entryY=0.25;entryDx=0;entryDy=0;" parent="76" source="139" target="44" edge="1">
                    <mxGeometry relative="1" as="geometry">
                        <mxPoint x="565" y="64.25" as="sourcePoint"/>
                        <mxPoint x="795" y="48" as="targetPoint"/>
                        <Array as="points">
                            <mxPoint x="565" y="53"/>
                        </Array>
                    </mxGeometry>
                </mxCell>
                <mxCell id="139" value="Reunión de resolución del caso" style="rounded=0;whiteSpace=wrap;html=1;fillColor=#FFFF99;" parent="76" vertex="1">
                    <mxGeometry x="510" y="70" width="110" height="40" as="geometry"/>
                </mxCell>
                <mxCell id="167" value="" style="ellipse;whiteSpace=wrap;html=1;aspect=fixed;fillColor=#1A1A1A;" parent="76" vertex="1">
                    <mxGeometry x="869" y="187.75" width="20" height="20" as="geometry"/>
                </mxCell>
                <mxCell id="173" value="" style="edgeStyle=none;html=1;" edge="1" parent="76" source="170" target="172">
                    <mxGeometry relative="1" as="geometry"/>
                </mxCell>
                <mxCell id="176" value="" style="edgeStyle=none;html=1;" edge="1" parent="76" source="170" target="175">
                    <mxGeometry relative="1" as="geometry"/>
                </mxCell>
                <mxCell id="170" value="¿Se acepta el acuerdo?" style="rhombus;whiteSpace=wrap;html=1;labelBorderColor=none;labelBackgroundColor=none;" vertex="1" parent="76">
                    <mxGeometry x="30" y="230" width="120" height="65.26" as="geometry"/>
                </mxCell>
                <mxCell id="178" value="" style="edgeStyle=none;html=1;entryX=0;entryY=1;entryDx=0;entryDy=0;" edge="1" parent="76" source="172" target="26">
                    <mxGeometry relative="1" as="geometry"/>
                </mxCell>
                <mxCell id="172" value="Sí" style="ellipse;shadow=0;sketch=0;whiteSpace=wrap;labelBorderColor=none;labelBackgroundColor=none;" vertex="1" parent="76">
                    <mxGeometry x="222.75" y="244.01" width="36.5" height="36.5" as="geometry"/>
                </mxCell>
                <mxCell id="177" value="" style="edgeStyle=none;html=1;" edge="1" parent="76" source="175" target="22">
                    <mxGeometry relative="1" as="geometry"/>
                </mxCell>
                <mxCell id="175" value="No" style="ellipse;whiteSpace=wrap;labelBorderColor=none;labelBackgroundColor=none;" vertex="1" parent="76">
                    <mxGeometry x="75" y="173.5" width="30" height="30" as="geometry"/>
                </mxCell>
                <mxCell id="80" value="Comisión" style="swimlane;startSize=20;horizontal=0;whiteSpace=wrap;labelBorderColor=none;labelBackgroundColor=none;" parent="64" vertex="1">
                    <mxGeometry x="20" y="400" width="960" height="120" as="geometry"/>
                </mxCell>
                <mxCell id="110" value="No" style="ellipse;whiteSpace=wrap;labelBorderColor=none;labelBackgroundColor=none;" parent="80" vertex="1">
                    <mxGeometry x="175" y="53.97" width="30" height="30" as="geometry"/>
                </mxCell>
                <mxCell id="122" value="" style="edgeStyle=none;html=1;" parent="80" source="112" target="115" edge="1">
                    <mxGeometry relative="1" as="geometry"/>
                </mxCell>
                <mxCell id="112" value="¿Se puede &#10;dar el hecho por&#10;probado?" style="rhombus;whiteSpace=wrap;labelBorderColor=none;labelBackgroundColor=none;" parent="80" vertex="1">
                    <mxGeometry x="222" y="26" width="153" height="85.94" as="geometry"/>
                </mxCell>
                <mxCell id="115" value="Sí" style="ellipse;shadow=0;sketch=0;whiteSpace=wrap;labelBorderColor=none;labelBackgroundColor=none;" parent="80" vertex="1">
                    <mxGeometry x="403" y="53.97" width="30" height="30" as="geometry"/>
                </mxCell>
                <mxCell id="123" style="edgeStyle=none;html=1;exitX=0;exitY=0.5;exitDx=0;exitDy=0;entryX=1;entryY=0.5;entryDx=0;entryDy=0;" parent="80" source="112" target="110" edge="1">
                    <mxGeometry relative="1" as="geometry">
                        <mxPoint x="210" y="68.94" as="targetPoint"/>
                    </mxGeometry>
                </mxCell>
                <mxCell id="35" value="Emite conclusiones del caso" style="whiteSpace=wrap;labelBorderColor=none;labelBackgroundColor=none;fillColor=#FFFF99;" parent="80" vertex="1">
                    <mxGeometry x="630" y="31.939999999999998" width="120" height="74.06" as="geometry"/>
                </mxCell>
                <mxCell id="33" value="Investiga&#10;(recopila información, declaraciones, evidencias, opiniones, revisión del expediente, etc.)" style="whiteSpace=wrap;labelBorderColor=none;labelBackgroundColor=none;fillColor=#FFFF99;" parent="80" vertex="1">
                    <mxGeometry x="460" y="31.939999999999998" width="145" height="74.06" as="geometry"/>
                </mxCell>
                <mxCell id="36" value="" style="edgeStyle=none;sketch=0;shadow=0;fontFamily=Helvetica;fontSize=12;fontColor=default;labelBorderColor=none;labelBackgroundColor=none;entryX=0;entryY=0.5;entryDx=0;entryDy=0;" parent="80" source="33" target="35" edge="1">
                    <mxGeometry relative="1" as="geometry">
                        <mxPoint x="770" y="82.94" as="targetPoint"/>
                    </mxGeometry>
                </mxCell>
                <mxCell id="114" value="" style="edgeStyle=none;sketch=0;labelBorderColor=none;labelBackgroundColor=none;entryX=0;entryY=0.5;entryDx=0;entryDy=0;" parent="80" source="115" target="33" edge="1">
                    <mxGeometry relative="1" as="geometry">
                        <mxPoint x="462" y="68.96999999999974" as="targetPoint"/>
                    </mxGeometry>
                </mxCell>
                <mxCell id="168" value="Emite acuerdo de sobreseimiento" style="whiteSpace=wrap;html=1;labelBorderColor=none;labelBackgroundColor=none;" vertex="1" parent="80">
                    <mxGeometry x="30" y="51.97" width="120" height="37.03" as="geometry"/>
                </mxCell>
                <mxCell id="169" value="" style="edgeStyle=none;html=1;" edge="1" parent="80" source="110" target="168">
                    <mxGeometry relative="1" as="geometry"/>
                </mxCell>
                <mxCell id="171" value="" style="edgeStyle=none;html=1;" edge="1" parent="64" source="168" target="170">
                    <mxGeometry relative="1" as="geometry"/>
                </mxCell>
            </root>
        </mxGraphModel>
    </diagram>
</mxfile>